<svg width="63" height="76" viewBox="0 0 63 76" fill="none" xmlns="http://www.w3.org/2000/svg">
<path fill-rule="evenodd" clip-rule="evenodd" d="M31.5 22.5C26.55 22.5 22.5 26.55 22.5 31.5C22.5 36.45 26.55 40.5 31.5 40.5C33.8869 40.5 36.1761 39.5518 37.864 37.864C39.5518 36.1761 40.5 33.8869 40.5 31.5C40.5 29.1131 39.5518 26.8239 37.864 25.136C36.1761 23.4482 33.8869 22.5 31.5 22.5ZM31.5 0C46.215 0 63 11.07 63 32.175C63 45.585 53.415 59.715 34.245 74.43C32.625 75.69 30.375 75.69 28.755 74.43C9.585 59.67 0 45.585 0 32.175C0 11.07 16.785 0 31.5 0Z" fill="#DA5C5C"/>
</svg>
