<svg width="20" height="20" viewBox="0 0 20 20" fill="none" xmlns="http://www.w3.org/2000/svg">
<path fill-rule="evenodd" clip-rule="evenodd" d="M14.6904 8C14.6904 11.3093 12.0001 14 8.67161 14C5.34311 14 2.65283 11.3093 2.65283 8C2.65283 4.69071 5.34311 2 8.67161 2C12.0001 2 14.6904 4.69071 14.6904 8ZM13.5242 14.3694C12.177 15.3925 10.4954 16 8.67161 16C4.24296 16 0.652832 12.4183 0.652832 8C0.652832 3.58172 4.24296 0 8.67161 0C13.1003 0 16.6904 3.58172 16.6904 8C16.6904 9.87652 16.0428 11.6021 14.9584 12.9665L19.4626 18.3589C19.8166 18.7828 19.7601 19.4134 19.3362 19.7675C18.9123 20.1215 18.2817 20.0649 17.9276 19.6411L13.5242 14.3694Z" fill="#9E9E9E"/>
</svg>
